<svg id="Layer_35" enable-background="new 0 0 64 64" height="512" viewBox="0 0 64 64" width="512" xmlns="http://www.w3.org/2000/svg" xmlns:xlink="http://www.w3.org/1999/xlink"><linearGradient id="SVGID_1_" gradientUnits="userSpaceOnUse" x1="32" x2="32" y1="63" y2="1"><stop offset="0" stop-color="#9f2fff"/><stop offset="1" stop-color="#0bb1d3"/></linearGradient><path d="m58 11h-3v-10h-46v10h-3c-2.757 0-5 2.243-5 5v30c0 2.757 2.243 5 5 5h17.382l-2 4h-1.382c-2.757 0-5 2.243-5 5v3h34v-3c0-2.757-2.243-5-5-5h-1.382l-2-4h17.382c2.757 0 5-2.243 5-5v-30c0-2.757-2.243-5-5-5zm-3 28v-22h2v26h-35.586l-1.414-1.414c-.378-.378-.88-.586-1.414-.586h-11.586v-24h2v22zm-44-28h42v26h-42zm42-8v6h-42v-6zm-6 57v1h-30v-1c0-1.654 1.346-3 3-3h24c1.654 0 3 1.346 3 3zm-6.618-5h-16.764l2-4h12.764zm20.618-9c0 1.654-1.346 3-3 3h-52c-1.654 0-3-1.346-3-3v-30c0-1.654 1.346-3 3-3h3v2h-2c-1.103 0-2 .897-2 2v24c0 1.103.897 2 2 2h11.586l1.414 1.414c.378.378.88.586 1.414.586h35.586c1.103 0 2-.897 2-2v-26c0-1.103-.897-2-2-2h-2v-2h3c1.654 0 3 1.346 3 3zm-54-1h2v2h-2zm4 0h2v2h-2zm4 0h2v2h-2zm0-38h-2v-2h2zm4 0h-2v-2h2zm4 0h-2v-2h2zm16 6h12v2h-12zm10 4h2v2h-2zm-2 0v2h-2v-2zm-4 2h-4v-2h4zm-4 2h12v2h-12zm10 4h2v2h-2zm-2 0v2h-2v-2zm-4 2h-4v-2h4zm-4 2h12v2h-12zm10 4h2v2h-2zm-4 0h2v2h-2zm-6 0h4v2h-4zm-26-10h16v-10h-16zm2-8h12v6h-12zm0 12h-2v-2h2zm2-2h12v2h-12zm-4 4h16v2h-16zm0 4h16v2h-16zm18 2h6v-6h-6zm2-4h2v2h-2zm-2-4h6v-6h-6zm2-4h2v2h-2zm-2-4h6v-6h-6zm2-4h2v2h-2z" fill="url(#SVGID_1_)"/></svg>